<?xml version="1.0" encoding="UTF-8"?>
<!DOCTYPE svg PUBLIC "-//W3C//DTD SVG 1.1//EN" "http://www.w3.org/Graphics/SVG/1.1/DTD/svg11.dtd">
<!-- Creator: CorelDRAW X8 -->
<svg xmlns="http://www.w3.org/2000/svg" xml:space="preserve" width="800px" height="800px" version="1.1" shape-rendering="geometricPrecision" text-rendering="geometricPrecision" image-rendering="optimizeQuality" fill-rule="evenodd" clip-rule="evenodd"
viewBox="0 0 800 800"
 xmlns:xlink="http://www.w3.org/1999/xlink">
 <g id="Ebene_x0020_1">
  <metadata id="CorelCorpID_0Corel-Layer"/>
  <path fill="#F07D19" d="M400 22c209,0 378,169 378,378 0,209 -169,378 -378,378 -209,0 -378,-169 -378,-378 0,-209 169,-378 378,-378z"/>
  <path fill="white" fill-rule="nonzero" d="M637 397c0,-131 -106,-237 -237,-237 -131,0 -237,106 -237,237 0,131 106,237 237,237 131,0 237,-106 237,-237zm-298 -128c19,-10 39,-14 61,-14 78,0 142,63 142,142 0,21 -4,41 -14,61 -63,-63 -126,-126 -189,-189zm122 256c-19,9 -39,14 -61,14 -78,0 -142,-64 -142,-142 0,-21 4,-41 14,-61 63,63 126,126 189,189z"/>
 </g>
</svg>
