<?xml version="1.0" encoding="UTF-8"?>
<!DOCTYPE svg PUBLIC "-//W3C//DTD SVG 1.1//EN" "http://www.w3.org/Graphics/SVG/1.1/DTD/svg11.dtd">
<!-- Creator: CorelDRAW X8 -->
<svg xmlns="http://www.w3.org/2000/svg" xml:space="preserve" width="1220px" height="270px" version="1.1" shape-rendering="geometricPrecision" text-rendering="geometricPrecision" image-rendering="optimizeQuality" fill-rule="evenodd" clip-rule="evenodd"
viewBox="0 0 1220 270"
 xmlns:xlink="http://www.w3.org/1999/xlink">
 <g id="Ebene_x0020_1">
  <metadata id="CorelCorpID_0Corel-Layer"/>
  <g id="_2032550553760">
   <path fill="#F07D19" fill-rule="nonzero" d="M307 141l25 0c0,0 0,-1 0,-3 0,-4 0,-6 -1,-9 -1,-2 -2,-3 -3,-5 -1,-1 -3,-1 -4,-2 -1,0 -2,-1 -3,-1 -2,0 -3,1 -5,1 -2,1 -3,2 -4,4 -4,5 -5,10 -5,15zm44 24c1,0 1,1 2,2 0,1 0,2 0,3 -4,6 -8,10 -14,13 -5,3 -10,5 -16,5 -12,0 -21,-3 -27,-8 -4,-3 -6,-7 -8,-12 -2,-5 -3,-10 -3,-15 0,-6 1,-12 3,-17 2,-5 5,-9 8,-12 4,-4 7,-6 12,-8 4,-2 9,-3 14,-3 4,0 8,1 12,2 4,1 7,3 9,4 2,2 4,5 6,7 1,3 2,5 3,8 1,3 1,5 1,8 0,2 -1,3 -1,5 -1,1 -2,1 -4,1l-42 0 0 3c0,5 0,9 2,12 1,4 3,6 5,8 2,2 4,3 7,3 3,1 6,1 9,1 3,0 7,-1 11,-2 4,-2 8,-5 11,-8z"/>
   <path id="1" fill="#F07D19" fill-rule="nonzero" d="M386 77l13 0c18,38 31,64 40,80l42 -80 13 0 4 36c2,16 4,30 5,41 1,11 3,22 4,33 -1,-1 -6,-1 -13,-1 -5,0 -8,0 -10,1 -3,-34 -5,-60 -7,-77l-6 10 -6 11 -6 11c-3,4 -5,8 -6,11l-5 10 -6 12 -5 11 -9 0 -9 -18 -9 -16 -9 -19 -10 -18 -3 24c-1,13 -3,22 -3,30 -1,7 -2,13 -2,18 -1,-1 -4,-1 -8,-1 -4,0 -6,0 -8,1 6,-32 12,-69 19,-110z"/>
   <path id="2" fill="#F07D19" fill-rule="nonzero" d="M565 150l-13 3c-2,1 -4,1 -5,3 -2,1 -3,2 -3,4 -1,1 -2,2 -2,4 0,1 0,3 0,5 0,2 0,4 2,6 2,2 4,3 6,3 5,0 9,-2 12,-6 1,0 1,-1 2,-3 1,-2 1,-3 1,-4l0 -15zm21 23c0,3 1,4 2,5 2,1 4,1 8,1 1,1 1,2 2,4 -3,1 -6,3 -9,4 -4,0 -7,1 -11,1 -4,0 -6,-1 -8,-2 -2,-2 -4,-4 -5,-8l0 0c-7,7 -14,10 -23,10 -6,0 -11,-2 -16,-5 -4,-3 -6,-7 -6,-13 0,-5 2,-10 6,-14 5,-4 11,-7 19,-9l19 -5c1,-1 1,-1 1,-2 0,-7 -1,-11 -3,-13 -2,-3 -4,-4 -8,-4 -4,0 -8,1 -11,3 -3,2 -7,6 -9,10l-6 0 -3 -13 0 0c2,-2 7,-4 13,-6 6,-2 12,-3 17,-3 5,0 9,1 14,2 5,1 8,2 11,5 4,4 7,10 7,20 0,0 -1,5 -1,15 0,9 0,15 0,17z"/>
   <path id="3" fill="#F07D19" fill-rule="nonzero" d="M612 86c0,-3 1,-6 4,-8 2,-2 5,-4 8,-4 4,0 7,2 9,4 3,2 4,5 4,8 0,3 -1,6 -4,8 -2,3 -5,4 -9,4 -3,0 -6,-1 -8,-4 -3,-2 -4,-5 -4,-8zm2 62c0,-15 -1,-25 -2,-31l1 -2c0,0 2,0 5,0 2,0 4,0 6,0 3,0 6,0 12,0 1,0 1,1 1,2 -1,14 -2,23 -2,29l0 11c0,12 1,21 2,29l0 0c-5,0 -9,0 -13,0 -3,0 -7,0 -12,0l0 0c1,-7 2,-17 2,-29l0 -9z"/>
   <path id="4" fill="#F07D19" fill-rule="nonzero" d="M664 153l0 -45c0,-14 -1,-24 -2,-31l0 0c3,0 8,-1 13,-2 5,-2 9,-3 11,-4 1,0 2,1 2,2 -2,11 -2,21 -2,31l0 49c0,13 0,24 2,33l-1 1c-4,0 -8,0 -12,0l-13 0 0 -1c1,-8 2,-19 2,-33z"/>
   <path id="5" fill="#666666" fill-rule="nonzero" d="M742 179c10,0 15,-5 15,-17 0,-3 -2,-6 -4,-9 -3,-3 -6,-6 -11,-8 -8,-4 -15,-8 -18,-11 -5,-3 -9,-6 -11,-10 -4,-4 -5,-10 -5,-18 0,-5 1,-10 5,-15 3,-4 7,-7 13,-10 5,-2 11,-3 17,-3 4,0 8,0 11,1 4,0 7,1 10,2 2,0 5,1 7,2 2,1 3,1 4,2l2 0 0 1c-1,4 -2,11 -3,20l-5 0c-2,-3 -4,-6 -6,-9 -2,-3 -5,-5 -8,-8 -4,-2 -7,-3 -10,-3 -4,0 -8,2 -11,5 -3,3 -4,7 -4,11 0,3 0,5 1,8 1,2 2,4 4,5 2,2 4,3 5,4 2,1 4,2 7,3 2,1 4,2 6,3 1,1 4,2 6,3 3,2 5,3 6,4 2,2 4,3 6,5 2,2 3,4 4,5 1,2 2,4 3,6 1,3 1,5 1,8 0,4 -1,8 -2,12 -2,4 -5,7 -8,10 -3,3 -8,5 -13,7 -5,2 -10,3 -16,3 -6,0 -12,-1 -18,-2 -6,-1 -10,-2 -13,-4l-4 -1 -1 -1c2,-5 3,-12 4,-20l4 0c3,5 8,9 14,13 5,4 11,6 16,6z"/>
   <path id="6" fill="#666666" fill-rule="nonzero" d="M850 176c-2,3 -6,5 -9,7 -4,2 -7,3 -10,4 -3,1 -6,1 -8,1 -4,0 -8,-1 -11,-2 -3,-1 -5,-3 -6,-5 -2,-2 -3,-5 -4,-7 -1,-3 -1,-5 -1,-8l0 -21c0,-9 0,-19 -1,-29l0 -1c4,0 8,0 12,0l12 0 0 1c0,6 -1,16 -1,30l0 14c0,3 0,6 0,8 1,2 1,4 2,5 1,1 2,2 3,2 1,0 3,0 4,0 2,0 5,0 8,-2 3,-1 5,-3 7,-6 2,-3 3,-5 3,-8l0 -14c0,-13 0,-23 -1,-29l1 -1c3,0 7,0 11,0l12 0 1 1c-1,6 -2,16 -2,29l0 10c0,11 1,21 3,31l0 1c-3,0 -7,-1 -13,-1 -3,0 -6,1 -9,1 -1,0 -1,0 -1,-1l-1 -10 -1 0z"/>
   <path id="7" fill="#666666" fill-rule="nonzero" d="M924 129c2,-4 5,-8 9,-11 3,-3 7,-4 10,-4 3,0 6,0 9,1l0 1 -3 17 -3 1c-2,-3 -6,-4 -9,-4 -1,0 -2,0 -3,0 -1,0 -2,1 -3,1 -2,1 -3,2 -4,3 -1,1 -2,2 -3,4 -1,2 -1,4 -1,7l0 11c0,12 0,22 2,30l-1 0c-5,0 -10,0 -13,0l-11 0 -1 0c2,-7 2,-17 2,-30l0 -8c0,-15 0,-26 -2,-32l1 -1c10,0 17,0 21,0 1,0 1,0 2,1 0,1 0,5 0,12l1 1z"/>
   <path id="8" fill="#666666" fill-rule="nonzero" d="M992 187c-12,-30 -21,-53 -30,-72 2,0 7,1 15,1 6,0 10,-1 12,-1 7,23 13,40 19,53l0 0 4 -9c1,-3 3,-7 5,-12l3 -10 5 -12c2,-6 3,-9 3,-10 1,0 3,1 7,1 6,0 9,-1 10,-1 -14,30 -25,54 -32,72 -1,-1 -4,-1 -9,-1 -7,0 -11,0 -12,1z"/>
   <path id="9" fill="#666666" fill-rule="nonzero" d="M1075 141l25 0c0,0 0,-1 0,-3 0,-4 0,-6 -1,-9 0,-2 -1,-3 -3,-5 -1,-1 -2,-1 -3,-2 -2,0 -3,-1 -4,-1 -1,0 -3,1 -5,1 -1,1 -3,2 -4,4 -3,5 -5,10 -5,15zm44 24c1,0 2,1 2,2 1,1 1,2 1,3 -4,6 -9,10 -14,13 -5,3 -11,5 -17,5 -12,0 -21,-3 -27,-8 -3,-3 -6,-7 -8,-12 -2,-5 -3,-10 -3,-15 0,-6 1,-12 3,-17 2,-5 5,-9 9,-12 3,-4 7,-6 11,-8 5,-2 9,-3 14,-3 5,0 9,1 13,2 3,1 6,3 9,4 2,2 4,5 5,7 2,3 3,5 3,8 1,3 1,5 1,8 0,2 0,3 -1,5 0,1 -2,1 -4,1l-42 0 0 3c0,5 1,9 2,12 1,4 3,6 5,8 2,2 5,3 7,3 3,1 6,1 10,1 3,0 7,-1 11,-2 4,-2 7,-5 10,-8z"/>
   <path id="10" fill="#666666" fill-rule="nonzero" d="M1132 115c2,0 7,1 15,1 5,0 9,-1 10,-1 5,14 11,31 19,51l2 0c6,-15 13,-31 19,-51 1,0 4,1 10,1 4,0 6,-1 7,-1 -6,12 -15,31 -27,58 -12,26 -19,43 -22,52 -2,0 -4,-1 -8,-1 -5,0 -9,1 -11,1 2,-3 4,-6 6,-9 1,-3 2,-6 3,-8l4 -9 4 -9 0 -1c-3,-8 -8,-20 -15,-37l-16 -37z"/>
   <path fill="#666666" d="M171 86c48,0 88,40 88,88 0,48 -40,87 -88,87 -48,0 -88,-39 -88,-87 0,-48 40,-88 88,-88z"/>
   <g>
    <rect fill="white" x="127" y="169" width="20.8578" height="57.8149"/>
    <rect fill="white" x="161" y="144" width="20.8578" height="83.6966"/>
    <rect fill="white" x="194" y="120" width="20.8578" height="107.849"/>
   </g>
   <path fill="#F07D19" d="M93 9c49,0 88,39 88,87 0,48 -39,88 -88,88 -48,0 -87,-40 -87,-88 0,-48 39,-87 87,-87z"/>
   <g>
    <g>
     <polygon fill="white" points="106,58 134,55 108,29 "/>
     <polygon fill="white" points="65,73 70,79 92,79 93,71 "/>
     <path fill="white" d="M105 29c-1,0 -2,0 -3,1l-37 37c-1,1 -1,2 -1,3l38 -3 3 -38 0 0z"/>
     <path fill="white" d="M105 70l-10 1 -1 8 21 0 18 -18c1,-1 1,-2 1,-3l-28 2 -1 10 0 0z"/>
    </g>
    <polygon fill="white" points="47,94 140,94 140,154 47,154 "/>
    <path fill="white" fill-rule="nonzero" d="M139 95l-92 0 0 -1c2,-11 5,-21 8,-32l76 0c3,11 6,21 9,32l0 1 -1 0zm-91 -1l90 0 -8 -31 -74 0 -8 31z"/>
    <rect fill="white" x="65" y="79" width="55.4574" height="2.71238"/>
   </g>
  </g>
 </g>
</svg>
