<?xml version="1.0" encoding="UTF-8"?>
<!DOCTYPE svg PUBLIC "-//W3C//DTD SVG 1.1//EN" "http://www.w3.org/Graphics/SVG/1.1/DTD/svg11.dtd">
<!-- Creator: CorelDRAW X8 -->
<svg xmlns="http://www.w3.org/2000/svg" xml:space="preserve" width="800px" height="800px" version="1.1" shape-rendering="geometricPrecision" text-rendering="geometricPrecision" image-rendering="optimizeQuality" fill-rule="evenodd" clip-rule="evenodd"
viewBox="0 0 800 800"
 xmlns:xlink="http://www.w3.org/1999/xlink">
 <g id="Ebene_x0020_1">
  <metadata id="CorelCorpID_0Corel-Layer"/>
  <path fill="#F07D19" d="M400 22c209,0 378,169 378,378 0,209 -169,378 -378,378 -209,0 -378,-169 -378,-378 0,-209 169,-378 378,-378z"/>
  <g id="_1245098882352">
   <path fill="white" d="M390 440l-12 0c-6,0 -11,-5 -11,-11 0,-2 1,-4 2,-6 7,-7 13,-16 17,-26 1,1 2,1 3,1 7,0 15,-14 15,-25 0,-10 -1,-18 -8,-18 -1,0 -1,0 -2,0 -1,-27 -8,-61 -50,-61 -44,0 -49,34 -49,61 -1,0 -1,0 -2,0 -7,0 -8,8 -8,18 0,11 8,25 15,25 1,0 2,0 2,0 5,10 10,18 17,25 2,2 3,4 3,6 0,6 -5,12 -11,12l-12 0c-26,0 -47,20 -47,46l0 13c0,8 7,14 15,14l155 0c8,0 14,-6 14,-14l0 -13c0,-26 -20,-47 -46,-47z"/>
   <path fill="white" d="M529 313l-130 0c4,8 6,19 8,31 2,2 4,5 6,8l116 0c6,0 11,-5 11,-11l0 -17c0,-6 -5,-11 -11,-11z"/>
   <path fill="white" d="M529 384l-113 0c-3,12 -11,24 -21,27 -1,1 -1,1 -1,2l0 10 135 0c6,0 11,-5 11,-11l0 -17c0,-6 -5,-11 -11,-11z"/>
   <path fill="white" d="M529 455l-88 0c5,9 9,20 9,32l0 7 79 0c6,0 11,-5 11,-11l0 -17c0,-6 -5,-11 -11,-11z"/>
   <path fill="white" d="M576 205l-360 0c-37,0 -66,30 -66,67l0 265c0,36 29,66 66,66l360 0c37,0 66,-30 66,-66l0 -265c0,-37 -29,-67 -66,-67zm35 332c0,19 -16,35 -35,35l-360 0c-19,0 -35,-16 -35,-35l0 -265c0,-20 16,-36 35,-36l360 0c19,0 35,16 35,36l0 265z"/>
  </g>
 </g>
</svg>
