<?xml version="1.0" encoding="UTF-8"?>
<!DOCTYPE svg PUBLIC "-//W3C//DTD SVG 1.1//EN" "http://www.w3.org/Graphics/SVG/1.1/DTD/svg11.dtd">
<!-- Creator: CorelDRAW X8 -->
<svg xmlns="http://www.w3.org/2000/svg" xml:space="preserve" width="800px" height="800px" version="1.1" shape-rendering="geometricPrecision" text-rendering="geometricPrecision" image-rendering="optimizeQuality" fill-rule="evenodd" clip-rule="evenodd"
viewBox="0 0 800 800"
 xmlns:xlink="http://www.w3.org/1999/xlink">
 <g id="Ebene_x0020_1">
  <metadata id="CorelCorpID_0Corel-Layer"/>
  <path fill="#F07D19" d="M400 22c209,0 378,169 378,378 0,209 -169,378 -378,378 -209,0 -378,-169 -378,-378 0,-209 169,-378 378,-378z"/>
  <g id="_2032552330576">
   <path fill="white" d="M187 187l426 0 0 426 -426 0 0 -426zm19 19l388 0 0 388 -388 0 0 -388z"/>
   <rect fill="white" x="254" y="258" width="53.1249" height="321.095"/>
   <rect fill="white" x="334" y="378" width="53.1249" height="201.347"/>
   <rect fill="white" x="413" y="287" width="53.1249" height="292.483"/>
   <rect fill="white" x="493" y="413" width="53.1249" height="166.376"/>
  </g>
 </g>
</svg>
